<svg id="Layer_1" data-name="Layer 1" xmlns="http://www.w3.org/2000/svg" viewBox="0 0 823.3 546.9">
  <defs>
    <style>
      .cls-1 {
        opacity: 0.08;
      }

      .cls-2 {
        fill: #b3b3b3;
      }

      .cls-3 {
        fill: #231f20;
      }
    </style>
  </defs>
  <g class="cls-1">
    <path class="cls-2" d="M337,522.1c10.9-16.5,21.1-31.4,31.5-48.1a128.5,128.5,0,0,0,52,21.7,102.1,102.1,0,0,0,48.5-2.2,55.8,55.8,0,0,0,36.8-36.7,128.3,128.3,0,0,0,3.4-46.2,75.2,75.2,0,0,0-6.4,4.7,107.8,107.8,0,0,1-152.1-9.8,102.5,102.5,0,0,1-11.9-16.6,136,136,0,0,1,10.6-155.7c41.2-47.9,117.8-48.3,154.5-12.7a40.7,40.7,0,0,0,4.8,3.3V201.5h62.2V435.3A121.4,121.4,0,0,1,547,510.8a111.5,111.5,0,0,1-76,40.9,187.8,187.8,0,0,1-114.2-17.3C350.1,530.9,344.1,526.5,337,522.1ZM445.2,383.4a62.8,62.8,0,0,0,63.9-61.9c.1-1.5,0-3,0-4.5a62.9,62.9,0,0,0-59.2-66.4h-4.5a64.4,64.4,0,0,0-64.7,64v1.3A64,64,0,0,0,441,383.3Z" transform="translate(-14.5 -7.2)"/>
    <path class="cls-2" d="M213.7,116.1V7.2h59.2V342.4c0,11,0,11-11.4,11H214.4V334.2C142.8,367.7,81.3,359,35.3,293a124.6,124.6,0,0,1,4.5-144.2A127.6,127.6,0,0,1,121,98.6,133.8,133.8,0,0,1,213.7,116.1Zm-69.8,39.1A70,70,0,0,0,73.8,225v.2a70.8,70.8,0,1,0,141.5,0,69.5,69.5,0,0,0-69-70Z" transform="translate(-14.5 -7.2)"/>
    <path class="cls-2" d="M271.9,448.7H146.1V395.8H271.9Z" transform="translate(-14.5 -7.2)"/>
  </g>
  <text x="-14.5" y="-7.2"/>  <path class="cls-3" d="M-69.3-33" transform="translate(-14.5 -7.2)"/>
</svg>
